<svg width="38" height="38" viewBox="0 0 38 38" fill="none" xmlns="http://www.w3.org/2000/svg">
<g clip-path="url(#clip0_149402_143)">
<path d="M28.4997 9.49984H25.333C25.333 6.00067 22.4988 3.1665 18.9997 3.1665C15.5005 3.1665 12.6663 6.00067 12.6663 9.49984H9.49967C7.75801 9.49984 6.33301 10.9248 6.33301 12.6665V31.6665C6.33301 33.4082 7.75801 34.8332 9.49967 34.8332H28.4997C30.2413 34.8332 31.6663 33.4082 31.6663 31.6665V12.6665C31.6663 10.9248 30.2413 9.49984 28.4997 9.49984ZM18.9997 6.33317C20.7413 6.33317 22.1663 7.75817 22.1663 9.49984H15.833C15.833 7.75817 17.258 6.33317 18.9997 6.33317ZM28.4997 31.6665H9.49967V12.6665H12.6663V15.8332C12.6663 16.704 13.3788 17.4165 14.2497 17.4165C15.1205 17.4165 15.833 16.704 15.833 15.8332V12.6665H22.1663V15.8332C22.1663 16.704 22.8788 17.4165 23.7497 17.4165C24.6205 17.4165 25.333 16.704 25.333 15.8332V12.6665H28.4997V31.6665Z" fill="#002F52"/>
</g>
<defs>
<clipPath id="clip0_149402_143">
<rect width="38" height="38" fill="white"/>
</clipPath>
</defs>
</svg>
